# xmcd
#
# Track frame offsets: 
#        150
#        13485
#        27739
#        42927
#        64328
#        85993
#        97850
#        111477
#        134565
#        148192
#        158419
#        166932
#        182467
#        197500
#        216922
#
# Disc length: 3136 seconds
#
# Revision: 0
# Processed by: cddbd v1.5.2PL0 Copyright (c) Steve Scherf et al.
# Submitted via: ExactAudioCopy v0.95b4
#
DISCID=d80c3e0f
DTITLE=Virgil J. Moore - The Best Of Virgil J Moore
DYEAR=1900
DGENRE=Country
TTITLE0=The Repentance
TTITLE1=Jesus Past Me By
TTITLE2=Trials and Tribulations
TTITLE3=Church House Of The Savior
TTITLE4=The Old Gentleman
TTITLE5=Born Again
TTITLE6=When Jesus Comes For Your Soul
TTITLE7=Mama's Words
TTITLE8=He'll Be There To Let Me In
TTITLE9=God Has Answered More Than One Prayer
TTITLE10=The Promised Savior
TTITLE11=My Way Of Saying I Love You
TTITLE12=The Skyway Bridge
TTITLE13=I'm Holding To His Hand
TTITLE14=Let's Pretend
EXTD=
EXTT0=
EXTT1=
EXTT2=
EXTT3=
EXTT4=
EXTT5=
EXTT6=
EXTT7=
EXTT8=
EXTT9=
EXTT10=
EXTT11=
EXTT12=
EXTT13=
EXTT14=
PLAYORDER=
